<svg
    width="21"
    height="21"
    viewBox="0 0 21 21"
    fill="none"
    xmlns="http://www.w3.org/2000/svg"
>
    <g clip-path="url(#clip0)">
        <path
            d="M10.4998 0.000976562C4.70092 0.000976562 0 4.7019 0 10.5008C0 16.2996 4.70092 21.0006 10.4998 21.0006C16.2987 21.0006 20.9996 16.2996 20.9996 10.5008C20.9996 4.7019 16.2987 0.000976562 10.4998 0.000976562ZM10.4998 15.4669C7.757 15.4669 5.53362 13.2436 5.53362 10.5008C5.53362 7.75797 7.757 5.5346 10.4998 5.5346C13.2426 5.5346 15.466 7.75797 15.466 10.5008C15.466 13.2436 13.2426 15.4669 10.4998 15.4669Z"
            fill="#E8E8E8"
        />
        <path
            d="M1.58911 10.5008C1.58911 4.96932 5.86659 0.43685 11.2943 0.0305488C11.0321 0.0108203 10.7672 0.000976562 10.4998 0.000976562C4.70092 0.000976563 0 4.7019 0 10.5008C0 16.2996 4.70092 21.0006 10.4998 21.0006C10.7672 21.0006 11.0321 20.9907 11.2943 20.971C5.86659 20.5647 1.58911 16.0322 1.58911 10.5008ZM12.0889 5.5346C11.8185 5.5346 11.5532 5.55601 11.2943 5.59846C13.6596 5.97814 15.466 8.02839 15.466 10.5008C15.466 12.9732 13.6596 15.0234 11.2943 15.4031C11.5532 15.4455 11.8185 15.4669 12.0889 15.4669C14.8317 15.4669 17.0551 13.2436 17.0551 10.5008C17.0551 7.75797 14.8317 5.5346 12.0889 5.5346Z"
            fill="#C1C0BF"
        />
        <path
            d="M21.0031 10.4998C19.7247 10.0617 18.3683 9.9362 17.0449 10.1226C16.5122 10.1976 15.9846 10.3232 15.4699 10.4998C15.4699 12.9721 13.6635 15.0219 11.2987 15.4021H11.2983C11.0394 15.4445 10.7742 15.4659 10.5037 15.4659H10.5033C9.90336 17.2175 9.88962 19.1151 10.4613 20.8736C10.475 20.9156 10.4892 20.9571 10.5033 20.9991V20.9995H10.5037C10.5505 20.9995 10.5976 20.9991 10.6443 20.9986C10.682 20.9982 10.7201 20.9974 10.7579 20.9965C10.8089 20.9952 10.8594 20.9939 10.9096 20.9918C10.9529 20.9901 10.9957 20.9884 11.039 20.9862C11.0429 20.9858 11.0472 20.9858 11.0511 20.9854C11.0935 20.9832 11.1359 20.9811 11.1779 20.9781C11.2182 20.9759 11.2585 20.9729 11.2983 20.9699C16.726 20.5637 21.0035 16.0312 21.0035 10.4998H21.0031ZM10.5033 0.000410156V0C4.70442 0.000410156 0.00390625 4.70088 0.00390625 10.4998H0.00431641C0.525461 10.321 1.05985 10.1946 1.59941 10.1196C2.91597 9.93747 4.26506 10.0643 5.53749 10.4998C5.53749 7.75696 7.76045 5.53399 10.5033 5.53358C9.90327 3.78205 9.88953 1.88438 10.4613 0.125959C10.475 0.083959 10.4891 0.0424102 10.5033 0.000410156Z"
            fill="#FF605D"
        />
        <path
            d="M10.5033 0.000410156V0C4.70442 0.000410156 0.00390625 4.70088 0.00390625 10.4998H0.00431641C0.525461 10.321 1.05985 10.1946 1.59941 10.1196C1.78033 5.04714 5.55894 0.890941 10.4613 0.125959C10.475 0.083959 10.4891 0.0424102 10.5033 0.000410156ZM17.0449 10.1226C16.5122 10.1976 15.9846 10.3232 15.4699 10.4998C15.4699 12.9721 13.6635 15.0219 11.2987 15.4021C11.5576 15.4445 11.8224 15.4659 12.0929 15.4659C14.8356 15.4659 17.059 13.2426 17.059 10.4998C17.059 10.3729 17.0543 10.2473 17.0449 10.1226Z"
            fill="#E04848"
        />
    </g>
    <defs>
        <clipPath id="clip0">
            <rect
                width="21"
                height="21"
                fill="white"
            />
        </clipPath>
    </defs>
</svg>