<svg width="39" height="39" viewBox="0 0 39 39" fill="none" xmlns="http://www.w3.org/2000/svg">
<path d="M10.9653 8.25539C10.8237 8.39702 10.7422 8.5937 10.7422 8.79395C10.7422 8.99509 10.8237 9.19087 10.9653 9.3325C11.107 9.47414 11.3037 9.55566 11.5039 9.55566C11.705 9.55566 11.9008 9.47414 12.0425 9.3325C12.1841 9.19087 12.2656 8.99509 12.2656 8.79395C12.2656 8.5937 12.1841 8.39702 12.0425 8.25539C11.9008 8.11375 11.705 8.03223 11.5039 8.03223C11.3037 8.03223 11.107 8.11375 10.9653 8.25539Z" fill="#3350EE"/>
<path d="M32.1966 8.03247H14.5488C14.1281 8.03247 13.7871 8.37346 13.7871 8.79419C13.7871 9.21492 14.1281 9.55591 14.5488 9.55591H32.1966C32.8399 9.55591 33.3633 10.079 33.3633 10.7223V26.3554H28.3008C27.8801 26.3554 27.5391 26.6964 27.5391 27.1171C27.5391 27.5378 27.8801 27.8788 28.3008 27.8788H33.3633V28.2356C33.3633 28.8789 32.8399 29.4023 32.1966 29.4023H9.95025C9.77083 29.4023 9.59706 29.4656 9.45959 29.5814L5.63672 32.8005V10.7223C5.63672 10.079 6.1601 9.55591 6.8034 9.55591H8.45538C8.87581 9.55591 9.21709 9.21492 9.21709 8.79419C9.21709 8.37346 8.87581 8.03247 8.45538 8.03247H6.8034C5.32013 8.03247 4.11328 9.23902 4.11328 10.7223V34.4379C4.11328 34.7343 4.28497 35.0036 4.55365 35.1285C4.6563 35.1761 4.7658 35.1996 4.8747 35.1996C5.05115 35.1996 5.22551 35.1384 5.36565 35.0205L10.2282 30.9257H32.1966C33.6799 30.9257 34.8867 29.7188 34.8867 28.2356V10.7223C34.8867 9.23902 33.6799 8.03247 32.1966 8.03247Z" fill="#3350EE"/>
<path d="M26.503 19.0164C26.503 17.0202 24.8793 15.3965 22.883 15.3965H21.2305C20.81 15.3965 20.4688 15.7375 20.4688 16.1582V22.8613C20.4688 23.2818 20.81 23.623 21.2305 23.623H22.883C24.879 23.623 26.503 21.999 26.503 20.0028V19.0164ZM24.9796 20.0028C24.9796 21.1591 24.039 22.0996 22.883 22.0996H21.9922V16.9199H22.883C24.039 16.9199 24.9796 17.8602 24.9796 19.0164V20.0028Z" fill="#3350EE"/>
<path d="M13.1842 20.7032L12.54 22.6182C12.4058 23.0169 12.6201 23.449 13.0188 23.5832C13.4181 23.7174 13.8495 23.5028 13.9837 23.1041L14.4592 21.6911H16.5753L17.0508 23.1041C17.1576 23.4222 17.4543 23.623 17.7727 23.623C17.8533 23.623 17.9351 23.6102 18.0155 23.5832C18.4142 23.449 18.6287 23.0169 18.4945 22.6182L16.2391 15.9151C16.135 15.6051 15.8443 15.3965 15.5173 15.3965C15.1903 15.3965 14.8996 15.6051 14.7954 15.9151L13.1848 20.7017C13.1845 20.7023 13.1842 20.7026 13.1842 20.7032ZM15.5173 18.5466L16.0627 20.1676H14.9719L15.5173 18.5466Z" fill="#3350EE"/>
<path d="M24.7544 26.5786C24.6128 26.7203 24.5312 26.9169 24.5312 27.1172C24.5312 27.3183 24.6128 27.5141 24.7544 27.6557C24.8963 27.7974 25.0927 27.8789 25.293 27.8789C25.4935 27.8789 25.6899 27.7974 25.8315 27.6557C25.9732 27.5141 26.0547 27.3174 26.0547 27.1172C26.0547 26.9169 25.9732 26.7203 25.8315 26.5786C25.6899 26.437 25.4935 26.3555 25.293 26.3555C25.0927 26.3555 24.896 26.437 24.7544 26.5786Z" fill="#3350EE"/>
</svg>
