<svg width="22" height="32" viewBox="0 0 22 32" fill="none" xmlns="http://www.w3.org/2000/svg">
<path d="M19.5233 -0.025H2.4805C1.48663 -0.025 0.678125 0.783504 0.678125 1.77737V11.5144C0.678125 12.5083 1.48663 13.3168 2.4805 13.3168H7.33568C7.59899 13.3168 7.81317 13.531 7.81317 13.7943V30.2226C7.81317 31.2164 8.62168 32.0249 9.61555 32.0249H12.3882C13.382 32.0249 14.1905 31.2164 14.1905 30.2226V29.9762C14.1905 29.7129 14.4048 29.4987 14.668 29.4987H16.28C17.2739 29.4987 18.0824 28.6902 18.0824 27.6963V26.6098C18.0824 25.6159 17.2739 24.8074 16.28 24.8074H14.6681C14.4048 24.8074 14.1906 24.5932 14.1906 24.3299C14.1906 24.0666 14.4048 23.8524 14.6681 23.8524H16.2801C17.274 23.8524 18.0825 23.0439 18.0825 22.05V20.9635C18.0825 19.9696 17.274 19.1611 16.2801 19.1611H14.6681C14.4048 19.1611 14.1906 18.9469 14.1906 18.6836V13.7943C14.1906 13.531 14.4048 13.3168 14.6681 13.3168H19.5233C20.5171 13.3168 21.3256 12.5083 21.3256 11.5144V1.77737C21.3257 0.783504 20.5172 -0.025 19.5233 -0.025ZM14.6681 20.486H16.2801C16.5434 20.486 16.7576 20.7002 16.7576 20.9635V22.05C16.7576 22.3133 16.5434 22.5275 16.2801 22.5275H14.6681C13.6742 22.5275 12.8657 23.336 12.8657 24.3299C12.8657 25.3238 13.6742 26.1323 14.6681 26.1323H16.2801C16.5434 26.1323 16.7576 26.3464 16.7576 26.6098V27.6963C16.7576 27.9596 16.5434 28.1738 16.2801 28.1738H14.6681C13.6742 28.1738 12.8657 28.9823 12.8657 29.9762V30.2226C12.8657 30.4859 12.6515 30.7001 12.3882 30.7001H9.61555C9.35223 30.7001 9.13805 30.4859 9.13805 30.2226V21.0538L12.8657 17.3261V18.6836C12.8657 19.6775 13.6742 20.486 14.6681 20.486ZM20.0008 11.5144C20.0008 11.7777 19.7867 11.9919 19.5233 11.9919H14.6681C13.6742 11.9919 12.8657 12.8004 12.8657 13.7943V15.4524L9.13805 19.1801V13.7943C9.13805 12.8005 8.32954 11.992 7.33568 11.992H2.4805C2.21718 11.992 2.003 11.7778 2.003 11.5145V1.77737C2.003 1.51405 2.21718 1.29987 2.4805 1.29987H19.5233C19.7867 1.29987 20.0008 1.51405 20.0008 1.77737V11.5144Z" fill="#3350EE" stroke="#3350EE" stroke-width="0.05"/>
<path d="M17.1811 2.97891H16.9421C16.5763 2.97891 16.2797 3.27554 16.2797 3.64134C16.2797 4.00715 16.5763 4.30378 16.9421 4.30378H17.1811C17.5469 4.30378 17.8436 4.00715 17.8436 3.64134C17.8436 3.27554 17.5469 2.97891 17.1811 2.97891Z" fill="#3350EE" stroke="#3350EE" stroke-width="0.05"/>
<path d="M14.6872 2.97891H4.82103C4.45522 2.97891 4.15859 3.27554 4.15859 3.64134C4.15859 4.00715 4.45522 4.30378 4.82103 4.30378H14.6872C15.053 4.30378 15.3496 4.00715 15.3496 3.64134C15.3496 3.27554 15.053 2.97891 14.6872 2.97891Z" fill="#3350EE" stroke="#3350EE" stroke-width="0.05"/>
<path d="M17.1794 5.91543H4.82103C4.45522 5.91543 4.15859 6.21206 4.15859 6.57787C4.15859 6.94367 4.45522 7.2403 4.82103 7.2403H17.1793C17.5451 7.2403 17.8418 6.94367 17.8418 6.57787C17.8418 6.21213 17.5452 5.91543 17.1794 5.91543Z" fill="#3350EE" stroke="#3350EE" stroke-width="0.05"/>
<path d="M17.1794 8.85098H4.82103C4.45522 8.85098 4.15859 9.14761 4.15859 9.51341C4.15859 9.87922 4.45522 10.1758 4.82103 10.1758H17.1793C17.5451 10.1758 17.8418 9.87922 17.8418 9.51341C17.8418 9.14761 17.5452 8.85098 17.1794 8.85098Z" fill="#3350EE" stroke="#3350EE" stroke-width="0.05"/>
</svg>
