<svg width="32" height="22" viewBox="0 0 32 22" fill="none" xmlns="http://www.w3.org/2000/svg">
<path d="M27.7997 9.71922C24.1128 6.19902 19.1525 5.71899 17.3324 5.6723V1.00535C17.3324 0.63864 17.0324 0.338623 16.6656 0.338623C16.5123 0.338623 16.3589 0.391938 16.2389 0.491944L4.90505 9.82585C4.61834 10.0592 4.57834 10.4792 4.81173 10.7659C4.83842 10.7992 4.87173 10.8259 4.90505 10.8592L16.239 20.1931C16.5257 20.4264 16.9457 20.3864 17.1791 20.0997C17.2791 19.9797 17.3324 19.833 17.3324 19.673V14.8328C19.1925 14.326 26.3262 13.0393 30.7464 21.3198C30.8598 21.5398 31.0865 21.6731 31.3332 21.6731C31.5465 21.6731 31.7532 21.5731 31.8865 21.3798C31.9665 21.2665 31.9998 21.1265 31.9998 20.9865C31.9933 16.1662 30.5798 12.3794 27.7997 9.71922ZM20.2592 13.1594C18.0391 13.1594 16.479 13.6928 16.439 13.7128C16.1723 13.8061 15.999 14.0595 15.999 14.3395V18.2597L6.37844 10.3393L15.999 2.4188V6.33903C15.999 6.51904 16.0723 6.69236 16.2057 6.81905C16.339 6.94575 16.5124 7.01238 16.699 7.00575C16.759 7.00575 22.8127 6.78574 26.8929 10.6926C28.8997 12.6128 30.1131 15.2129 30.5198 18.4531C27.293 14.1061 23.1994 13.1594 20.2592 13.1594Z" fill="#3350EE"/>
<path d="M12.4589 19.193C12.4456 19.1863 12.4389 19.173 12.4256 19.1663L1.71166 10.3392L12.4256 1.51868C12.7189 1.29198 12.7723 0.871953 12.5456 0.585311C12.3189 0.298608 11.8989 0.238604 11.6122 0.465305C11.5989 0.471993 11.5922 0.485306 11.5789 0.491993L0.24489 9.82577C-0.0418134 10.0591 -0.0818157 10.4791 0.151573 10.7658C0.178262 10.7991 0.211576 10.8258 0.24489 10.8591L11.5788 20.193C11.8589 20.433 12.2789 20.4063 12.5189 20.133C12.7589 19.853 12.7323 19.433 12.4589 19.193Z"  fill="#3350EE"/>
</svg>
