<svg width="28" height="28" viewBox="0 0 28 28" fill="none" xmlns="http://www.w3.org/2000/svg">
<path d="M25.7331 23.1248L25.7332 23.1248C26.1359 23.4303 26.2147 24.0045 25.9092 24.4072C25.1997 25.3425 24.2725 26.1172 23.2285 26.6474L23.2964 26.7811L23.2285 26.6474C22.1328 27.2039 20.9507 27.486 19.7137 27.486H8.28558C4.00005 27.486 0.513281 23.9992 0.513281 19.7137V8.28558C0.513281 4.00005 4.00005 0.513281 8.28558 0.513281H19.7138C23.9992 0.513281 27.486 4.00005 27.486 8.28558V18.6339C27.486 19.1394 27.0762 19.5492 26.5707 19.5492C26.0651 19.5492 25.6553 19.1394 25.6553 18.6339V8.28558C25.6553 5.00922 22.9901 2.34396 19.7137 2.34396H8.28558C5.00922 2.34396 2.34396 5.00922 2.34396 8.28558V19.7138C2.34396 22.9901 5.00922 25.6553 8.28558 25.6553H19.7138C21.5886 25.6553 23.3158 24.7967 24.4507 23.3008L24.3312 23.2102L24.4507 23.3008C24.7563 22.898 25.3305 22.8193 25.7331 23.1248Z" fill="#3350EE" stroke="#F3F5F9" stroke-width="0.3"/>
<path d="M14 10V18" stroke="#3350EE" stroke-width="1.6" stroke-linecap="round" stroke-linejoin="round"/>
<path d="M10 14L18 14" stroke="#3350EE" stroke-width="1.6" stroke-linecap="round" stroke-linejoin="round"/>
</svg>
